<svg viewBox="0 0 194 217" version="1.1" xmlns="http://www.w3.org/2000/svg" xmlns:xlink="http://www.w3.org/1999/xlink">
    <path fill="currentColor" d="M189,66.92 L167.22,0 L96.85,0 L118.6,66.92 L189,66.92 Z M96.85,0 L26.49,0 L4.75,66.92 L75.11,66.92 L96.85,0 Z M4.75,66.92 L4.75,66.92 C-8.2155486,106.823309 5.98702407,150.537196 39.93,175.2 L61.67,108.28 L4.75,66.92 Z M188.96,66.92 L188.96,66.92 L132,108.28 L153.74,175.2 L153.74,175.2 C187.712462,150.558625 201.948665,106.840642 189,66.92 L188.96,66.92 Z M39.93,175.2 L39.93,175.2 L96.86,216.56 L153.78,175.2 L96.85,133.84 L39.93,175.2 Z" ></path>
</svg>